<mxfile host="app.diagrams.net" modified="2023-06-16T10:56:51.232Z" agent="Mozilla/5.0 (X11; Linux x86_64) AppleWebKit/537.36 (KHTML, like Gecko) Chrome/112.0.0.0 Safari/537.36" version="21.4.0" etag="Rnmmu-2gfkjmE6Peg-ae" type="github">
  <diagram name="Page-1" id="KzkI___xYz-YQdn8d1mt">
    <mxGraphModel>
      <root>
        <mxCell id="0" />
        <mxCell id="1" parent="0" />
      </root>
    </mxGraphModel>
  </diagram>
</mxfile>
